<?xml version="1.0" encoding="UTF-8"?>
<svg version="1.1" viewBox="0 0 2048 439" width="671" height="144" xmlns="http://www.w3.org/2000/svg">
<path transform="translate(0)" d="m0 0h2048v439h-2048z" fill="#FEFEFE"/>
<path transform="translate(517,31)" d="m0 0h11l16 2 15 6 11 6 11 8 9 8 9 13 7 14 4 14 1 6v23l-3 15-5 13-9 15-12 13-11 8-16 8-12 4-10 2h-22l-19-5-16-8-10-7-10-9-9-12-8-16-4-13-2-17 1-16 4-15 5-12 9-14 9-10 14-10 16-8 10-4z" fill="#FEFEFE"/>
<path transform="translate(757,6)" d="m0 0h62l15 4 12 6 10 8 7 7 8 14 4 12 1 8v10l-3 15-4 10-9 13-14 11-14 7-8 2h-8l15 26 17 28 16 27 2 5-1 8-4 5-7 3-6-1-5-5-7-10-17-29-33-55h-12l-1 89-2 5-6 5h-10l-5-4-2-4-1-8v-169l1-35 6-7z" fill="#010101"/>
<path transform="translate(516,6)" d="m0 0h13l21 3 18 6 15 8 14 10 13 13 10 14 8 16 5 14 3 14 1 11v11l-2 17-4 14-5 12-7 13-10 13-11 12-16 11-16 8-18 6-12 2h-28l-19-4-15-6-10-5-17-12-10-10-10-13-11-21-5-15-3-19v-18l3-18 5-15 8-16 6-9 9-11 10-10 14-10 14-7 18-6 10-2zm1 25-16 2-17 7-15 9-11 9-9 11-9 16-5 16-2 16 1 17 4 15 6 14 8 12 11 12 13 9 16 8 19 5h22l17-4 16-7 15-10 9-9 9-13 7-14 4-14 1-7v-23l-4-17-4-10-9-15-10-11-14-10-15-8-11-4-16-2z" fill="#010101"/>
<path transform="translate(1351,6)" d="m0 0h7l5 3 7 9 12 20 13 20 24 38 14 22 36 57h1v-158l3-7 6-4h7l5 3 4 5 1 5v200l-2 9-6 6h-10l-7-6-30-48-14-22-15-24-36-57-7-12h-1l-1 159-3 6-5 4h-10l-5-5-2-3v-211l3-5z" fill="#010101"/>
<path transform="translate(1125,6)" d="m0 0h107l5 3 4 5 1 7-3 6-5 4h-92v74h77l7 6 2 5-2 9-5 5-3 1h-76l1 77 90 1 5 3 3 5 1 6-4 8-4 3-6 1h-98l-8-2-5-6-1-3v-208l4-7z" fill="#010101"/>
<path transform="translate(1927,6)" d="m0 0h107l6 4 3 5v7l-3 6-4 3-92 1-1 73h77l5 3 4 6v8l-4 6-6 3h-76l1 77 91 1 6 5 2 4v7l-3 5-5 4-7 1h-98l-7-2-4-5-1-2v-211l3-5z" fill="#010101"/>
<path transform="translate(1715,6)" d="m0 0h12l18 2 16 4 14 6 11 7 14 11 5 6 2 4v6l-4 6-4 3h-9l-6-4-14-11-15-8-13-4-15-2h-11l-16 2-15 5-13 7-11 8-7 7-10 14-7 15-4 17v24l4 17 8 16 7 11 13 13 19 12 13 5 13 3h16l19-3 17-6 12-7 14-12 4-2 7 1 5 4 3 6v6l-4 6-9 8-13 9-16 8-18 6-12 2h-28l-19-4-15-6-14-8-11-8-11-10-11-14-8-14-6-13-4-14-2-14v-18l2-16 7-21 8-15 9-12 12-13 12-9 11-7 14-6 16-4z" fill="#010101"/>
<path transform="translate(12,6)" d="m0 0h106l6 3 4 5 1 6-3 7-5 4h-92l1 75 76 1 5 3 3 4 1 8-3 6-3 3-4 1h-76v88l-2 9-6 5-5 1-7-2-5-6-1-3v-206l3-7 4-4z" fill="#010101"/>
<path transform="translate(229,6)" d="m0 0h7l6 4 3 4 1 194 69 1 6 5 2 4v7l-4 6-4 3-6 1h-76l-7-2-5-6-1-3v-208l3-6z" fill="#010101"/>
<path transform="translate(983,6)" d="m0 0 9 1 5 4 2 4v209l-2 5-6 5-5 1-6-2-5-5-1-2-1-40v-129l1-43 6-7z" fill="#010101"/>
<path transform="translate(774,31)" d="m0 0h41l12 3 9 6 5 4 6 10 3 10v12l-3 10-6 9-8 7-11 5-5 1h-44v-76z" fill="#FEFEFE"/>
<path transform="translate(615,391)" d="m0 0h11l8 4 5 6 1 3v12l-4 7-7 6-8 2-10-2-7-6-4-9v-7l3-8 7-6z" fill="#FEFEFE"/>
<path transform="translate(1106,390)" d="m0 0h8l10 2 6 5 3 6v14l-4 8-5 4-2 1-15 1-3-1-1-5v-32z" fill="#FEFEFE"/>
<path transform="translate(718,385)" d="m0 0h18l6 4 4 8v6l-4 6-7 4h-2l10 18 1 5-6-1-12-20-2-1-1 21h-6v-48z" fill="#010101"/>
<path transform="translate(831,384)" d="m0 0 4 2 9 20 8 19 3 9v2l-6-1-4-11-1-1h-23l-7 13-4-1 1-5 10-24 8-18z" fill="#010101"/>
<path transform="translate(616,385)" d="m0 0h8l9 3 8 7 4 8 1 4v8l-4 10-7 7-7 3-12 1-9-3-8-7-4-9v-12l4-9 4-5 9-5zm-1 6-8 4-5 6-2 6v7l5 10 8 6 8 1 8-2 8-7 3-6v-12l-4-7-5-4-5-2z" fill="#010101"/>
<path transform="translate(1504,385)" d="m0 0h9l10 4 5 4-1 4-13-5-8-1-8 3-5 4-3 6v13l5 8 7 4h12l7-3 1-2 1-11h-16l-1-5h21l1 1v18l-4 5-7 3-13 1-9-3-6-5-4-6-2-6v-10l4-10 9-8z" fill="#010101"/>
<path transform="translate(1099,385)" d="m0 0h21l7 2 5 4 6 10 1 3v12l-4 10-7 7-5 2-14 1h-10l-1-1v-49zm7 5-3 3v32l1 5 4 1 14-1 6-4 4-6 1-3v-14l-5-8-4-3-10-2z" fill="#010101"/>
<path transform="translate(1602,384)" d="m0 0 4 2 12 19 11 17 1-37 5 1v50l-5-1-7-10-11-18-5-8-1 36-2 1-4-1 1-50z" fill="#010101"/>
<path transform="translate(1317,385)" d="m0 0h8l7 6 3 9-1 2-4-1-4-8-4-2-5 1-4 3v7l3 3 12 5 5 4 2 5-1 9-5 5-7 3-7-1-6-4-3-9 1-3 4 1 3 7 5 3 6-1 3-4v-6l-4-4-12-5-5-5-1-7 3-7 6-5z" fill="#010101"/>
<path transform="translate(1211,385)" d="m0 0h27v5l-22 1v16h19v6h-19v17l22 1v4l-27 1z" fill="#010101"/>
<path transform="translate(411,385)" d="m0 0h28l-1 5-21 1v17h19l-1 5h-18v22l-1 1h-5z" fill="#010101"/>
<path transform="translate(924,385)" d="m0 0h4l1 30v15h9l8 1v4h-23v-48z" fill="#010101"/>
<path transform="translate(507,385)" d="m0 0h4l1 3v19l1 23 16 1v4l-20 1-3-1v-45z" fill="#010101"/>
<path transform="translate(724,390)" d="m0 0h8l5 2 3 3v8l-4 4-3 1h-10v-17z" fill="#FEFEFE"/>
<path transform="translate(1407,385)" d="m0 0h4l1 32v16l-2 3-4-1v-48z" fill="#010101"/>
<path transform="translate(832,395)" d="m0 0 2 1 8 19v2h-19l6-16z" fill="#FEFEFE"/>
</svg>
