<?xml version="1.0" encoding="UTF-8"?>
<svg version="1.1" viewBox="0 0 2048 439" width="671" height="144" xmlns="http://www.w3.org/2000/svg">
<path transform="translate(1351,6)" d="m0 0h7l5 3 7 9 11 18 14 22 24 38 14 22 24 38 12 18 1 1v-159l4-7 6-3h6l6 4 3 4 1 5v190l-1 17-4 6-3 2h-10l-7-6-24-38-15-24-14-22-15-24-12-19-15-24-7-11v-2h-2v161l-4 7-3 2h-10l-5-3-3-6v-210l3-5z" fill="#030303"/>
<path transform="translate(516,6)" d="m0 0h13l17 2 16 5 12 5 12 7 12 9 12 12 10 14 8 16 5 14 3 15 1 9v14l-3 19-6 18-9 17-9 12-12 13-14 10-15 8-17 6-16 3h-28l-15-3-20-7-14-8-13-10-9-9-10-13-7-12-7-17-4-16-1-8v-21l3-17 6-18 9-17 11-14 13-13 15-10 14-7 20-6zm1 25-16 2-15 6-14 8-13 10-8 9-8 13-6 14-3 14-1 16 2 16 6 18 8 14 9 11 10 9 15 9 15 6 15 3h20l17-4 16-7 12-8 10-9 9-12 8-15 4-13 2-10v-22l-4-18-9-19-10-13-9-8-18-11-14-6-8-2-12-1z" fill="#030303"/>
<path transform="translate(758,6)" d="m0 0h60l16 4 12 6 10 8 7 7 8 14 4 12 1 7v12l-3 14-5 11-6 9-5 5-8 7-11 6-10 4-4 1h-8l14 24 19 32 16 26 1 3v7l-4 6-4 3-7 1-5-3-7-8-17-29-17-28-19-32-13-1v91l-4 6-4 3h-9l-6-4-2-4-1-6v-201l2-7 5-5zm15 25v77h45l11-4 10-7 7-9 4-13v-9l-3-12-6-10-10-8-10-4-6-1z" fill="#030303"/>
<path transform="translate(1929,6)" d="m0 0h104l6 3 4 6v8l-5 7-2 1-92 1-1 73h76l6 3 4 5v9l-4 6-2 2-5 1h-75l1 77 90 1 5 3 4 6v7l-4 6-4 3-49 1h-54l-7-1-7-8-1-8v-199l2-7 6-5z" fill="#050505"/>
<path transform="translate(1127,6)" d="m0 0h105l6 4 3 4 1 7-3 6-5 4h-92v74h75l5 2 5 5 1 7-3 7-4 4-5 1h-74v78h91l6 4 3 7-1 6-4 6-3 2-40 1h-63l-9-2-5-6-1-3v-209l7-8z" fill="#030303"/>
<path transform="translate(1716,6)" d="m0 0h11l18 2 16 4 16 7 17 12 10 9 3 5v7l-4 6-4 3h-10l-11-9-10-7-16-8-15-4-11-1h-11l-15 2-15 5-13 7-13 10-11 13-8 14-5 14-2 9v25l4 17 8 17 8 11 4 4v2l4 2 7 6 13 8 10 5 14 4 7 1h13l16-2 16-5 14-7 11-9 7-6 7-1 7 4 4 6v7l-4 6-10 9-15 10-15 7-17 5-11 2h-28l-15-3-15-5-15-8-13-9-12-11-10-12-10-17-6-14-4-16-1-7v-25l4-20 6-15 7-13 12-16 10-10 14-10 10-6 15-6 20-4z" fill="#030303"/>
<path transform="translate(19,6)" d="m0 0h100l5 3 4 5 1 7-3 6-4 4h-93v76h78l6 5 2 5-1 8-5 6-6 1h-74v89l-3 9-5 4h-10l-6-5-2-4v-206l2-7 5-5z" fill="#030303"/>
<path transform="translate(230,6)" d="m0 0h6l6 4 3 4 1 4v190l68 1 5 3 4 5v8l-4 6-3 3-48 1h-33l-9-2-5-6-1-3v-209l4-6z" fill="#050505"/>
<path transform="translate(983,6)" d="m0 0 9 1 5 4 2 4v210l-4 6-4 3h-9l-5-3-3-5-1-7v-200l2-7 6-5z" fill="#090909"/>
<path transform="translate(1099,385)" d="m0 0h22l10 5 6 9 2 5v13l-5 10-8 7-2 1-9 1h-14l-3-1v-49zm5 6v39h18l6-4 4-6 1-3v-13l-3-6-5-5-6-2z" fill="#181818"/>
<path transform="translate(616,385)" d="m0 0 13 1 8 5 6 7 3 7v10l-3 8-7 8-7 4-12 1-9-2-9-8-4-9v-13l5-10 6-5 6-3zm0 6-8 3-6 7-1 3v14l6 8 7 4 7 1 8-2 8-7 3-6v-11l-3-6-7-6-6-2z" fill="#141414"/>
<path transform="translate(1505,385)" d="m0 0h8l8 3 5 3 2 3v3l-5-1-10-4h-10l-8 4-4 6-1 3v12l4 6 6 5 2 1h13l6-4 1-2v-7l-1-2-14-1-1-5h21l1 1 1 12-2 8-5 4-5 2-12 1-10-3-7-6-4-8-1-3v-12l4-8 5-5 8-5z" fill="#121212"/>
<path transform="translate(1602,384)" d="m0 0 4 2 11 17 12 19 1-37 5 1v50l-5-1-10-15-13-20-1 36-5-1-1-5v-27l1-18z" fill="#0F0F0F"/>
<path transform="translate(718,385)" d="m0 0h17l7 4 4 7v7l-4 6-4 3-5 1 11 20-1 3-4-1-4-5-9-15-3-2v22l-5 1-1-1v-49zm5 6v16l1 1h8l7-3 1-2v-7l-5-5z" fill="#0D0D0D"/>
<path transform="translate(831,384)" d="m0 0 4 1 13 30 6 15 1 5-4 1-3-5-4-8h-23l-6 12-3 1-2-1 1-5 6-15 10-23zm0 12-8 21h19l-8-20z" fill="#0E0E0E"/>
<path transform="translate(1211,385)" d="m0 0h27l1 4-2 2h-21v16h19l1 5-1 1h-19v17h21l2 4-1 1-11 1h-15l-2-2v-43z" fill="#1F1F1F"/>
<path transform="translate(1317,385)" d="m0 0h7l7 4 4 8-1 5-4-1-3-6v-2l-3-1h-7l-4 4v6l5 4 12 5 4 5 1 2v7l-5 8-7 3-9-1-6-5-2-5v-5l4-1 5 9 4 2 6-1 3-4v-6l-5-4-12-5-4-4-1-3v-7l4-7z" fill="#141414"/>
<path transform="translate(412,385)" d="m0 0h27v5l-1 1h-21v17h19l-1 5h-18v22l-5 1-1-1v-49z" fill="#090909"/>
<path transform="translate(506,385)" d="m0 0 6 1v44h9l8 1v4l-17 1h-5l-1-1z" fill="#0D0D0D"/>
<path transform="translate(923,385)" d="m0 0h5l1 1 1 44h15l1 5-20 1-3-1z" fill="#080808"/>
<path transform="translate(1406,385)" d="m0 0 6 1v49l-5 1-1-1z" fill="#282828"/>
</svg>
