<?xml version="1.0" encoding="UTF-8"?>
<svg version="1.1" viewBox="0 0 2048 756" width="720" height="266" xmlns="http://www.w3.org/2000/svg">
<path transform="translate(0)" d="m0 0h2048v756h-2048z" fill="#FEFEFE"/>
<path transform="translate(796,254)" d="m0 0h71l14 2 11 4 9 8 6 12 2 12v7l-3 12-6 9-7 6-13 6h-2l11 22 7 9 5 4 3 1 11 1v20h-15l-10-3-6-4-8-9-12-23-8-16h-20l-15 2-5 2-1 51h-20v-134z" fill="#010101"/>
<path transform="translate(642,270)" d="m0 0h10l12 2 10 4 12 9 7 9 5 10 2 8v15l-2 10-6 12-11 12-11 6-12 4-6 1h-12l-10-2-14-7-10-9-6-8-5-13-1-6v-10l3-14 6-12 7-8 10-7 13-5z" fill="#FEFEFE"/>
<path transform="translate(1264,254)" d="m0 0h25l10 11 9 11 12 14 9 11 22 26 9 11 12 14 4 4v-102h19l1 1v133l-1 1h-19l-11-12-18-22-11-13-9-11-11-13-9-11-7-9-2-1 1 2v73l-1 17h-19l-1-117-11-13-3-3z" fill="#010101"/>
<path transform="translate(641,250)" d="m0 0h14l15 3 14 6 11 8 5 5 7 8 8 14 4 14 1 7v13l-3 15-4 9-7 11-11 12-13 9-17 6-13 2h-13l-17-4-16-8-11-9-10-13-6-12-4-15v-21l3-13 6-12 8-10 6-7 10-7 12-6 8-3zm1 20-12 2-12 5-10 8-8 11-5 14-1 7v10l3 12 5 10 9 10 10 7 12 5 9 1h10l16-4 10-5 10-9 7-10 4-10 1-7v-15l-3-10-5-10-8-9-12-8-11-4-9-1z" fill="#010101"/>
<path transform="translate(1096,254)" d="m0 0h95v20h-75v39l14-3h41v19l-2 1-39 1-10 2-4 1v34l82 1 1 1v19h-103z" fill="#010101"/>
<path transform="translate(1673,254)" d="m0 0h94l1 4-1 16-74 1-1 39 8-3 7-1h40v19l-1 1-40 1-12 3-1 1-1 34h82l1 1v19h-103v-126z" fill="#010101"/>
<path transform="translate(1538,250)" d="m0 0h12l16 3 14 6 15 11-1 4-10 12-4-2-8-6-12-5-13-2h-9l-12 2-14 7-9 8-7 11-3 8-1 6v17l3 10 5 10 7 8 12 8 10 4 9 1h12l13-3 12-6 8-7 2-3 4 1 9 13-1 4-14 11-14 7-10 3-8 1h-15l-14-3-12-5-14-9-8-8-7-10-5-10-4-13-1-7v-13l2-12 5-12 6-10 12-13 14-9 12-5z" fill="#010101"/>
<path transform="translate(251,254)" d="m0 0h94v20l-74 1-1 39 8-3 7-1h40v19l-1 1-40 1-10 2-4 1v55h-20v-134z" fill="#010101"/>
<path transform="translate(421,254)" d="m0 0h19v115h75l1 2-1 18h-94z" fill="#010101"/>
<path transform="translate(815,274)" d="m0 0h61l7 4 4 5 2 4v11l-4 8-5 4-9 3-37 1-14 2-5 1z" fill="#FEFEFE"/>
<path transform="translate(992,254)" d="m0 0h19v135h-19z" fill="#010101"/>
<path transform="translate(710,511)" d="m0 0 7 1 6 4 3 4 1 7-2 7-4 5-5 2h-9l-5-3-4-5-1-2v-9l4-6 5-4z" fill="#FEFEFE"/>
<path transform="translate(1074,511)" d="m0 0h10l7 3 4 6v12l-4 6-5 3-11 1-2-1v-29z" fill="#FEFEFE"/>
<path transform="translate(786,507)" d="m0 0h12l5 3 3 6-1 7-5 5-3 1 2 5 5 9v2l-5-1-9-15h-1l-1 16h-4v-36z" fill="#010101"/>
<path transform="translate(869,507)" d="m0 0h3l7 16 8 20v2l-4-1-3-6v-2h-18l-5 9-4-1 8-20 7-16z" fill="#010101"/>
<path transform="translate(1373,507)" d="m0 0 9 1 7 4 1 5-8-4-8-1-7 3-4 4-1 3v8l3 6 6 4h10l4-2 1-7-1-2-11-1v-3l2-1h13l2 4v8l-3 5-6 4-8 1-7-2-7-6-3-6v-11l3-6 7-6z" fill="#010101"/>
<path transform="translate(709,507)" d="m0 0 10 1 8 6 3 5 1 4v7l-3 7-5 5-5 3h-12l-7-4-5-6-1-2v-12l3-6 7-6zm1 4-7 3-5 6-1 2v9l4 6 3 3 3 1h9l6-3 4-5 1-9-3-7-5-4-5-2z" fill="#010101"/>
<path transform="translate(1070,507)" d="m0 0h15l7 3 5 5 3 9-1 9-4 7-5 4-10 2h-7l-4-1v-37zm4 4-1 1v29l6 1 9-2 5-4 2-4v-12l-4-6-7-3z" fill="#010101"/>
<path transform="translate(1445,507)" d="m0 0 4 2 7 10 9 15 1-26 3-1 1 1v37l-4-1-10-15-6-10-1 26h-5z" fill="#010101"/>
<path transform="translate(1232,507)" d="m0 0h7l5 5 2 4-1 4-3-1-3-6-6-1-3 3v6l9 4 6 5 1 7-3 5-3 3-6 1-5-2-4-4-1-6h4l4 6h8l1-7-5-4-10-5-2-4 1-7 5-5z" fill="#010101"/>
<path transform="translate(1154,507)" d="m0 0h20l-1 4h-16l1 13h14v4l-14 1v12h15v4h-20v-37z" fill="#010101"/>
<path transform="translate(556,507)" d="m0 0h20l-1 4h-15v13h14v4l-14 1-1 16h-4v-37z" fill="#010101"/>
<path transform="translate(939,507)" d="m0 0 3 1v33h12l1 4h-17v-37z" fill="#010101"/>
<path transform="translate(627,508)" d="m0 0h3l1 27 1 6h10l1 4h-17v-30z" fill="#010101"/>
<path transform="translate(789,511)" d="m0 0h8l4 3v8l-3 2h-9l-1-1v-11z" fill="#FEFEFE"/>
<path transform="translate(1300,507)" d="m0 0 3 1v37h-4v-37z" fill="#010101"/>
<path transform="translate(870,515)" d="m0 0 3 4 4 9v3h-13l1-5 4-10z" fill="#FEFEFE"/>
</svg>
