<?xml version="1.0" encoding="UTF-8"?>
<svg version="1.1" viewBox="0 0 2048 360" width="1103" height="194" xmlns="http://www.w3.org/2000/svg">
<path transform="translate(740,31)" d="m0 0h100l9 2 10 5 10 9 5 9 3 10v17l-3 10-7 10-7 6-13 6h-2l10 17 3 3v2l4 2 7 3 18 1v31h-18l-12-2-10-5-10-10-10-15-12-20-4-6-22 1-14 4-5 2-1 51h-29zm29 28v36l9-3 10-3 8-1 38-1 9-3 4-4 1-3v-10l-5-6-10-2z" fill="#525251"/>
<path transform="translate(532,26)" d="m0 0h20l17 3 16 6 12 7 12 11 8 11 5 11 3 11 1 7v16l-3 15-5 12-7 11-8 9-12 9-14 7-13 4-13 2h-20l-17-3-15-6-13-8-10-9-7-8-8-16-4-17v-19l4-16 7-14 8-10 7-7 14-9 15-6zm4 29-16 3-12 5-9 7-7 9-4 10-1 4v18l3 10 6 10 7 7 10 6 18 5h22l18-6 10-7 7-7 6-12 2-8v-16l-4-13-6-8-9-8-10-5-12-3-8-1z" fill="#525251"/>
<path transform="translate(1377,30)" d="m0 0 35 1 11 12 9 11 11 12 9 11 11 12 9 11 10 11 9 11 6 7 1-98h28v143h-28l-10-11-9-11-9-10-9-11-13-15-24-28-5-6-1 92h-28l-1-123-13-19z" fill="#525251"/>
<path transform="translate(1160,31)" d="m0 0h113v28l-84 1-1 34 12-5 9-2 9-1h36v28l-38 1-13 2-13 5h-2v23h90v29h-117l-1-1z" fill="#525251"/>
<path transform="translate(1895,31)" d="m0 0h113v28h-85v35l12-5 9-2 9-1h36v28l-38 1-13 2-13 5h-2v23h89l1 3v25l-1 1h-117z" fill="#525251"/>
<path transform="translate(1715,26)" d="m0 0h20l17 3 19 7 11 7-2 5-13 14-4 4-12-6-10-3-5-1h-21l-16 4-11 6-8 8-6 12-2 7v19l4 12 6 8 8 7 12 6 10 3h24l12-3 12-6 7-5 7 9 9 13-2 4-14 9-13 5-15 3-10 1h-15l-16-3-13-5-13-7-12-11-8-9-7-14-4-16v-23l4-15 6-12 10-13 10-8 14-8 18-6z" fill="#525251"/>
<path transform="translate(41,31)" d="m0 0h107v28h-79v35l12-5 8-2 9-1h31v28l-32 1-13 2-14 5-1 52h-28z" fill="#525251"/>
<path transform="translate(262,31)" d="m0 0h30v114h75l1 1v27l-1 1h-104l-1-1z" fill="#525251"/>
<path transform="translate(1e3 31)" d="m0 0h28v143h-27l-1-1z" fill="#525251"/>
<path transform="translate(1364,286)" d="m0 0h8l7 10 7 11 1-20 1-1h8l1 1v39h-9l-7-9-7-11-1 20h-10v-39z" fill="#525251"/>
<path transform="translate(785,285)" d="m0 0h12l8 5 4 5 2 5v12l-5 8-6 5-2 1h-15l-7-4-4-5-2-5v-12l4-8 8-6zm1 10-5 5-1 2v8l6 7 6 1 7-4 2-4v-8l-3-5-3-2z" fill="#525251"/>
<path transform="translate(1069,286)" d="m0 0h19l8 3 7 8 2 7-1 10-6 9-8 3h-21zm10 9-1 19 1 4h8l5-3 2-3v-11l-5-5z" fill="#525251"/>
<path transform="translate(843,286)" d="m0 0h17l8 2 5 5 2 9-3 7-4 2 6 13v2h-11l-5-11-6-1v12h-10v-39zm9 9v10h11l2-2v-5l-4-3z" fill="#525251"/>
<path transform="translate(1310,285)" d="m0 0h12l10 5-1 4-3 4-4-1-2-1h-10l-5 5v9l2 4 6 3 7-1 2-3h-6v-9h14v17l-3 3-5 2h-16l-8-6-4-7-1-9 3-9 6-7z" fill="#525251"/>
<path transform="translate(1135,286)" d="m0 0h29v9h-20l1 6 12 1v9h-13v7h20v8h-30v-39z" fill="#525251"/>
<path transform="translate(1209,285)" d="m0 0 9 1 8 4-2 9-9-4h-6l-1 4 14 6 4 5 1 5-3 7-5 4h-17l-6-3-2-2 2-9 5 2 6 3h9l-2-4-12-5-5-5-1-2 1-9 6-5z" fill="#525251"/>
<path transform="translate(920,286)" d="m0 0h9l4 8 12 31v1h-11l-3-5h-14l-2 5h-11l11-29 4-10zm3 13-3 10v3h9l-4-13z" fill="#525251"/>
<path transform="translate(661,286)" d="m0 0h28v9h-18v8h11l1 1v7l-1 1h-11v14h-10z" fill="#525251"/>
<path transform="translate(974,286)" d="m0 0h9l1 2v29l15 1v8h-26v-39z" fill="#525251"/>
<path transform="translate(718,286)" d="m0 0h9l1 31 15 1v8h-26v-39z" fill="#525251"/>
<path transform="translate(1256,286)" d="m0 0h10v40h-10z" fill="#525251"/>
</svg>
