<?xml version="1.0" encoding="UTF-8"?>
<svg version="1.1" viewBox="0 0 2048 386" width="673" height="127" xmlns="http://www.w3.org/2000/svg">
<path transform="translate(756,5)" d="m0 0h69l20 2 14 5 9 7 8 9 5 10 3 13v17l-5 16-7 10-9 8-13 6-7 1 16 32 8 10 6 5 5 2 14 1v26h-19l-14-4-9-6-8-9-8-14-19-39v-2l-36 1-14 3-5 1-1 69h-26v-179zm3 27v59l5-1 10-3 18-2 43-1 8-2 8-5 4-5 3-7v-15l-3-7-5-6-10-4-5-1z" fill="#0F0E0F"/>
<path transform="translate(1361,5)" d="m0 0h30l5 5 22 26 9 11 12 14 9 11 12 14 9 11 12 14 9 11 13 15 3 4 1-135 1-1h24l1 1 1 178-1 1h-26l-12-14-9-11-11-13-9-11-11-13-9-11-11-13-9-11-11-13-10-12-1 122h-25l-1-3v-151l-7-9-11-13-2-3z" fill="#111011"/>
<path transform="translate(523)" d="m0 0h25l21 5 16 8 13 9 9 8 8 10 8 14 6 15 3 15v24l-4 16-5 12-6 11-9 11-7 7-12 9-16 8-16 5-15 2h-15l-15-2-21-8-14-8-13-12-9-11-6-11-6-14-4-17v-25l3-14 6-15 8-13 9-10 7-7 15-10 16-7 15-4zm2 27-14 3-16 8-9 7-9 10-6 10-4 11-3 18 1 15 4 12 5 10 12 13 14 10 14 6 14 3h15l12-2 15-6 11-8 8-7 10-14 5-13 2-11v-18l-3-12-8-16-9-11-16-11-18-6-6-1z" fill="#0F0E0F"/>
<path transform="translate(1926,5)" d="m0 0h103v26l-3 1h-97v54l14-5 18-2h41l1 3-1 24-47 1-15 2-11 3v47h111v25l-1 1h-136v-179z" fill="#111011"/>
<path transform="translate(1154,5)" d="m0 0h106l1 25-1 1-77 1h-23v54l14-5 18-2h41v27l-48 1-15 2-10 3v47h111v26h-137v-179z" fill="#0F0E0F"/>
<path transform="translate(1719)" d="m0 0h19l21 4 16 6 13 8 10 8 2 3-13 15-2 3-4-1-10-7-14-7-14-4h-23l-16 4-12 6-12 9-10 13-6 14-3 16v15l3 11 5 12 7 9 5 6 16 11 19 7 8 1h14l15-3 12-5 13-9 7-7 2-3 4 2 10 14 3 4-2 4-8 8-15 10-10 5-19 6-10 1h-17l-19-3-19-8-12-7-10-9-8-8-9-14-7-16-4-16-1-10v-11l2-14 6-18 8-14 12-14 14-11 17-9 16-5z" fill="#0F0E0F"/>
<path transform="translate(48,5)" d="m0 0h84l1 1v25l-4 1h-97v54l14-5 18-2h42v26l-1 1-48 1-15 2-9 4-1 72h-25l-1-1v-178z" fill="#100F10"/>
<path transform="translate(256,5)" d="m0 0 4 2v151l99 1 1 4v21l-1 1h-125l-1-3v-176z" fill="#121112"/>
<path transform="translate(1017,5)" d="m0 0 4 1v179h-25l-1-1v-177l1-1z" fill="#111011"/>
<path transform="translate(1275,337)" d="m0 0 6 1 7 9 11 14 1-24h6l2 1-1 38-6-1-14-17-5-6v12l-1 12h-6l-1-1v-37z" fill="#131213"/>
<path transform="translate(839,337)" d="m0 0h13l7 4 5 6 2 6v9l-3 6-8 7-2 1h-14l-6-3-5-6-2-5v-11l4-8zm4 6-7 4-3 7 1 8 6 7 2 1h8l7-6 1-2v-11l-5-6-5-2z" fill="#111011"/>
<path transform="translate(1057,337)" d="m0 0h10l12 2 7 6 3 6v11l-4 7-6 5-9 2h-13l-1-5v-33zm7 7v25h9l7-4 2-5v-7l-3-6-5-3z" fill="#100F10"/>
<path transform="translate(1232,337)" d="m0 0h13l6 3-1 4-5 1-7-1-9 3-2 7v6l3 6 5 3h9l4-4v-2l-8-1-1-4 1-2h16v8l-4 7-8 5h-13l-6-4-5-6-1-3v-13l5-8z" fill="#111011"/>
<path transform="translate(884,337)" d="m0 0h12l10 2 5 6 1 6-3 8-3 4 7 11v2l-7-1-8-11-6-1-1 13h-6l-1-1zm7 7v12l1 1h7l5-3 1-4-2-5-2-1z" fill="#111011"/>
<path transform="translate(948,337)" d="m0 0 5 1 8 16 8 19v3h-6l-3-6-2-1h-17l-5 7h-6l3-9 10-23 4-6zm1 10-6 14v2l13 1-2-9-4-8z" fill="#121112"/>
<path transform="translate(1108,337)" d="m0 0h13l10 1v6h-17v9h12l1 1v5l-1 1-11 1-1 8h17l1 6-1 1h-23l-1-1v-37z" fill="#111011"/>
<path transform="translate(1157,337)" d="m0 0h10l6 4 1 5-5 1-5-3h-5l-2 4v2l5 2 10 5 4 6-1 7-5 5-7 2-8-1-6-5v-5l4-1 5 4 6 1 4-3v-5l-9-3-8-5-1-2v-9l5-5z" fill="#111011"/>
<path transform="translate(745,337)" d="m0 0h10l13 1 1 3-1 3h-17l1 9h13l1 1v5l-1 1-13 1-1 15h-6l-1-1v-37z" fill="#111"/>
<path transform="translate(786,337)" d="m0 0 7 1v31h16v6l-1 1h-22z" fill="#100F10"/>
<path transform="translate(987,337)" d="m0 0h6l1 1v31h16v6l-1 1h-22z" fill="#100F10"/>
<path transform="translate(1194,337)" d="m0 0 7 1v37l-1 1h-6l-1-1v-37z" fill="#100F10"/>
</svg>
