<?xml version="1.0" encoding="UTF-8"?>
<svg version="1.1" viewBox="0 0 2048 408" width="676" height="135" xmlns="http://www.w3.org/2000/svg">
<path transform="translate(768,8)" d="m0 0h54l17 1 12 3 10 5 10 9 6 8 5 13 1 6v18l-4 13-5 9-3 4h-2l-1 3-11 7-10 4-4 2 14 28 9 12 6 5 5 2 14 1v26h-10l-16-2-10-4-8-6-9-12-9-17-13-28-2-4h-30l-15 2-10 3v68h-26v-178zm-2 26-7 1v59l12-4 15-2 45-1 10-2 8-4 6-7 2-6v-17l-5-9-6-4-11-3-17-1z" fill="#0F0F0F"/>
<path transform="translate(1355,8)" d="m0 0h32l6 5 9 11 12 14 9 11 12 14 11 13 9 11 12 14 11 13 9 11 13 15 4 4-1-2v-133l1-1h25l1 1v177l-1 1h-25l-5-5-11-13-9-11-11-13-9-11-12-14-9-11-11-13-9-11-12-14-4-5-1 121h-25l-1-1v-151l-4-7-9-10-7-8z" fill="#101010"/>
<path transform="translate(529,3)" d="m0 0h14l15 2 11 3 10 4 14 9 10 8 8 8 7 10 8 16 4 12 2 10v27l-4 16-8 17-9 12-5 6-11 9-13 8-11 5-14 4-15 2h-13l-16-2-19-7-13-7-10-8-10-10-10-15-6-14-4-14-1-6v-24l3-14 5-13 6-11 7-9 6-7 13-10 14-8 16-6 9-2zm5 26-16 2-16 6-12 8-6 5-9 12-5 10-4 16-1 15 2 12 6 15 7 9 6 7 16 11 15 6 11 2h16l12-2 15-6 16-12 10-13 6-12 3-13 1-16-3-15-5-11-6-9-9-10-13-9-18-6z" fill="#0F0F0F"/>
<path transform="translate(1975,8)" d="m0 0h48l1 8v17l-1 1-98 1-1 9v44l16-5 7-1 48-1 2 1v25l-1 1-56 2-13 4h-3v46l109 1 1 1v25h-136l-1-6v-171l1-1z" fill="#101010"/>
<path transform="translate(1214,8)" d="m0 0h43l1 1v25l-99 1v53l11-4 11-2 49-1 1 1v26l-56 2-12 3-4 2-1 46h110l1 1v24l-1 1h-136v-178z" fill="#0F0F0F"/>
<path transform="translate(1720,3)" d="m0 0h9l17 2 18 5 17 9 13 10 1 3-9 10-6 8-5-2-10-7-15-7-11-3-15-1-16 2-16 6-13 9-7 7-7 10-6 15-2 11v19l4 14 6 11 11 12 13 9 11 5 16 4h16l14-3 13-5 12-9 8-8 1-2 3 1 13 18v4l-9 9-10 7-15 8-19 6-10 1h-16l-15-2-15-5-16-8-13-10-11-12-8-13-6-14-4-15-1-8v-17l3-16 5-13 7-13 9-11 8-8 13-9 16-8 14-4z" fill="#0F0F0F"/>
<path transform="translate(39,8)" d="m0 0h92l4 1v25l-99 1v53l11-4 13-2h48v26l-56 2-11 3-5 2-1 72h-26v-178z" fill="#101010"/>
<path transform="translate(237,8)" d="m0 0h23l1 1v152h99l1 1v25h-125l-1-2v-107l1-69z" fill="#101010"/>
<path transform="translate(994,9)" d="m0 0h25l1 1v176l-1 1h-25z" fill="#0F0F0F"/>
<path transform="translate(1356,338)" d="m0 0 7 1 11 13 11 14 4 4v-31l4-1 6 1v51l-4 1-6-3-10-13-14-17v32h-10v-51z" fill="#101010"/>
<path transform="translate(781,338)" d="m0 0h10l9 3 8 7 4 8 1 4v9l-4 10-8 8-7 3-5 1h-7l-9-3-7-6-6-12v-12l3-8 8-8zm0 9-6 4-4 5-1 3v12l4 6 6 4 3 1h7l8-5 4-6 1-3v-8l-4-8-5-4-2-1z" fill="#0F0F0F"/>
<path transform="translate(1067,338)" d="m0 0h12l11 1 9 4 7 7 3 7v15l-4 8-8 7-10 3h-21v-51zm9 9-1 1v33l1 1 12-1 6-3 4-5 2-5v-8l-4-8-6-4-4-1z" fill="#0F0F0F"/>
<path transform="translate(837,338)" d="m0 0h18l9 2 6 4 4 10-1 8-4 6-3 2 2 6 8 12v2h-9l-8-11-4-6h-8v17h-10zm10 9-1 4v12l1 1h11l6-4v-7l-5-5-4-1z" fill="#0F0F0F"/>
<path transform="translate(1302,338)" d="m0 0h12l10 4-1 5-3 3-6-2h-11l-6 4-4 5-1 3v9l3 6 5 4 5 2h8l5-3 3-3 1-3h-12l-1-1v-7l1-1h20l1 1v10l-4 8-7 6-9 3h-7l-9-3-8-7-4-7-2-8 1-10 4-8 8-7z" fill="#0F0F0F"/>
<path transform="translate(922,338)" d="m0 0 7 1 11 24 10 23 1 4h-10l-4-9-26-1-3 9-1 1h-9l1-5 11-25 8-18zm2 13-5 10-4 9v2l18 1-1-6-7-16z" fill="#0F0F0F"/>
<path transform="translate(1134,338)" d="m0 0h30l1 1v8h-22v12l16 1 1 3-1 5h-16v13h22l1 2-1 7h-32v-51z" fill="#0F0F0F"/>
<path transform="translate(1199,338)" d="m0 0h12l7 4 4 4-1 4-3 2-4-1-3-3-8-1-3 2 1 7 18 9 4 5 2 7-3 7-7 6-3 1h-11l-8-4-5-6 1-4 6-2 4 5 3 1h9l3-3-1-5-3-3-13-5-5-4-3-8 1-6 4-6z" fill="#0F0F0F"/>
<path transform="translate(652,338)" d="m0 0h30l2 1-1 8h-22v13h18l1 5-1 3h-18v22h-9l-1-1v-50z" fill="#0F0F0F"/>
<path transform="translate(974,338)" d="m0 0 9 1 1 42h19l1 1v8h-30l-1-1v-49z" fill="#0F0F0F"/>
<path transform="translate(707,338)" d="m0 0 9 1 1 42h19l1 1v8h-30l-1-25v-26z" fill="#0F0F0F"/>
<path transform="translate(1248,338)" d="m0 0h8l1 1v51h-9z" fill="#0F0F0F"/>
</svg>
