<?xml version="1.0" encoding="utf-8"?>
<!-- Generator: Adobe Illustrator 26.0.3, SVG Export Plug-In . SVG Version: 6.00 Build 0)  -->
<svg id="flower-bouquet" version="1.1" xmlns="http://www.w3.org/2000/svg" xmlns:xlink="http://www.w3.org/1999/xlink"
	 x="0px" y="0px" viewBox="0 0 1000 1000" style="enable-background:new 0 0 1000 1000;" xml:space="preserve">
<g id="flower-group">
	<polygon id="flower-polygon-1" class="bee"  points="353.97,164.64 354.01,173.15 359.22,165.76 367.71,164.58 360.34,160.54 359.69,151.38 355.09,159.4 
		347.06,159.72 	"/>
	<polygon id="flower-polygon-2" class="bee" points="574.84,23.49 578.73,17.98 585.05,17.1 579.56,14.09 579.08,7.28 575.65,13.25 569.67,13.48 574.81,17.15 	"/>
	<polygon id="flower-polygon-3" points="433.8,56.71 445.04,65.47 440.71,50.96 447.96,38.58 435,44.08 422.3,35.44 428.07,49.81 420.16,60.69 	"/>
	<polygon id="flower-polygon-4" class="bee" points="258.88,361.18 249.75,354.98 253.9,365.3 248.22,373.12 258.02,370.26 266.1,376.56 262.99,366.13 268.19,357.23 	"/>
	<path id="flower-path-1" d="M719.74,71.15l10.68,7.61l0.07,13.16c0.01,0.96,0.63,1.8,1.54,2.09c0.22,0.07,0.44,0.1,0.66,0.1c0.7,0,1.38-0.34,1.8-0.93
		l8.19-11.63l13.3-1.85c0.94-0.13,1.69-0.85,1.86-1.78c0.17-0.93-0.27-1.87-1.1-2.32l-11.32-6.21l-1-14.16
		c-0.07-0.96-0.76-1.77-1.7-1.99c-0.95-0.22-1.92,0.21-2.4,1.05l-7.12,12.41l-12.26,0.48c-0.94,0.04-1.75,0.67-2.02,1.57
		C718.64,69.63,718.97,70.6,719.74,71.15z M734.57,71.03c0.76-0.03,1.44-0.44,1.82-1.1l4.14-7.21l0.58,8.17
		c0.05,0.74,0.48,1.41,1.14,1.77l6.56,3.6l-7.68,1.07c-0.6,0.08-1.14,0.41-1.49,0.91l-4.79,6.8l-0.04-7.42
		c0-0.71-0.35-1.37-0.92-1.78l-6.36-4.53L734.57,71.03z"/>
	<path id="flower-path-2" d="M361.92,239.41c-0.84,0.48-1.27,1.45-1.06,2.39l2.06,9.17l-5.69,5.64c-0.67,0.66-0.84,1.67-0.43,2.52
		c0.41,0.84,1.28,1.34,2.25,1.22l8.54-1.05l5.88,6.34c0.43,0.46,1.02,0.71,1.61,0.71c0.32,0,0.63-0.07,0.93-0.21
		c0.87-0.4,1.37-1.32,1.25-2.27l-1.2-9.35l5.66-6.84c0.6-0.73,0.67-1.76,0.17-2.57s-1.46-1.19-2.38-0.97l-8.21,2.01l-6.78-6.42
		C363.81,239.05,362.76,238.93,361.92,239.41z M366.73,247.87l2.41,2.29c0.54,0.51,1.3,0.71,2.03,0.54l2.93-0.72l-2.04,2.47
		c-0.39,0.47-0.57,1.08-0.49,1.68l0.45,3.48l-1.97-2.13c-0.42-0.45-1.01-0.7-1.61-0.7c-0.09,0-0.18,0-0.27,0.02l-3.28,0.4l1.98-1.97
		c0.54-0.53,0.76-1.3,0.6-2.04L366.73,247.87z"/>
	<polygon id="flower-polygon-5" points="683.98,342.09 683.73,335.35 688.23,330.83 682.04,331.75 677.54,326.62 678.42,333.45 673.8,337.25 
		680.11,337.06 	"/>
	<polygon id="flower-polygon-6" points="335.65,309.81 341.38,312.62 338.52,307.05 341.94,301.14 335.75,304.16 330.67,301 332.87,306.93 329.35,312.2 	"/>
	<polygon id="flower-polygon-7" points="274.36,122.39 278.22,127.41 277.98,120.68 282.48,116.16 276.29,117.08 271.78,111.94 272.67,118.77 
		268.05,122.58 	"/>
	<polygon id="flower-polygon-8" points="296.88,536.32 290.68,537.24 286.18,532.11 287.06,538.94 282.44,542.74 288.76,542.55 292.62,547.58 
		292.38,540.84 	"/>
	<path id="flower-path-3" d="M761.12,220.58c6.28-0.65,10.75-2.07,10.75-2.07s-4.47-1.41-10.75-2.06l1.65-5.62l-5.62,1.65
		c-0.65-6.28-2.06-10.75-2.06-10.75s-1.41,4.47-2.07,10.75l-5.62-1.65l1.65,5.62c-6.28,0.65-10.75,2.06-10.75,2.06
		s4.47,1.41,10.75,2.07l-1.65,5.62l5.62-1.65c0.65,6.28,2.07,10.75,2.07,10.75s1.41-4.47,2.06-10.75l5.62,1.65L761.12,220.58z"/>
	<path id="flower-path-4" d="M499,14.55c4.02,0,7.28-3.26,7.28-7.28c0-4.02-3.26-7.28-7.28-7.28s-7.28,3.26-7.28,7.28
		C491.72,11.29,494.98,14.55,499,14.55z"/>
	<circle id="flower-circle-1" cx="238.03" cy="447.4" r="7.28"/>
	<path id="flower-path-5" d="M275.26,233.91c-5.03,0-9.13,4.1-9.13,9.13s4.1,9.13,9.13,9.13s9.13-4.1,9.13-9.13S280.3,233.91,275.26,233.91z
		 M275.26,248.35c-2.93,0-5.3-2.38-5.3-5.31c0-2.93,2.38-5.31,5.3-5.31s5.31,2.38,5.31,5.31
		C280.57,245.97,278.19,248.35,275.26,248.35z"/>
	<path id="flower-path-6" d="M681.02,108.79c3.87,0,7.02-3.15,7.02-7.02s-3.15-7.02-7.02-7.02c-3.87,0-7.02,3.15-7.02,7.02S677.15,108.79,681.02,108.79
		z M681.02,98.58c1.76,0,3.19,1.43,3.19,3.19c0,1.76-1.43,3.19-3.19,3.19c-1.76,0-3.19-1.43-3.19-3.19
		C677.83,100.01,679.26,98.58,681.02,98.58z"/>
	<path id="flower-path-7" d="M813.08,411.02c-3.87,0-7.02,3.15-7.02,7.02s3.15,7.02,7.02,7.02s7.02-3.15,7.02-7.02S816.95,411.02,813.08,411.02z
		 M813.08,421.23c-1.76,0-3.19-1.43-3.19-3.19s1.43-3.19,3.19-3.19s3.19,1.43,3.19,3.19S814.85,421.23,813.08,421.23z"/>
	<path id="flower-path-8" d="M347.06,57.47c3.87,0,7.02-3.15,7.02-7.02s-3.15-7.02-7.02-7.02s-7.02,3.15-7.02,7.02S343.19,57.47,347.06,57.47z
		 M347.06,47.27c1.76,0,3.19,1.43,3.19,3.19c0,1.76-1.43,3.19-3.19,3.19c-1.76,0-3.19-1.43-3.19-3.19
		C343.87,48.7,345.3,47.27,347.06,47.27z"/>
	<path id="flower-path-9" d="M565.54,87.65c2.29,0,4.15-1.86,4.15-4.15c0-2.29-1.86-4.15-4.15-4.15c-2.29,0-4.15,1.86-4.15,4.15
		C561.38,85.79,563.24,87.65,565.54,87.65z"/>
	<circle id="flower-circle-2" cx="774.84" cy="345.91" r="2.98"/>
	<path id="flower-path-10" d="M453.61,119.75c2.16,0,3.9-1.75,3.9-3.9c0-2.16-1.75-3.9-3.9-3.9c-2.16,0-3.9,1.75-3.9,3.9
		C449.71,118,451.46,119.75,453.61,119.75z"/>
	<circle id="flower-circle-3" cx="185.54" cy="277.51" r="5.64"/>
	<path id="flower-path-11" d="M733.49,277.81c-3.12,0-5.64,2.53-5.64,5.64c0,3.12,2.53,5.64,5.64,5.64c3.12,0,5.64-2.53,5.64-5.64
		C739.14,280.34,736.61,277.81,733.49,277.81z"/>
	<path id="flower-path-12" d="M703.27,413.27c-32.7,6.64-43,47.63-45.81,63.8c-3.61,5.18-12.22,17.79-23.11,35.44c0.56-20.47,0.59-82.57-20.2-69.42
		c-21.45,13.57,4.54,68.39,11.98,83c-8.99,15.15-18.9,32.87-28.55,52.13c0.29-17.87-0.98-63.05-21.89-53.05
		c-22.54,10.78,5.11,59.39,12.75,71.94c-7.3,15.69-14.21,32.11-20.17,48.76c-0.55,1.54-1.06,3.11-1.6,4.66
		c-1.09-18.25-5.48-60.03-22.53-46.07c-13.48,11.04,8.41,55.29,15.3,68.37c-7.45,24.69-13.68,50.35-20.16,77.11
		c-1.96,8.08-3.95,16.3-6.01,24.67c2.31-38.34,2.1-77.04-2.65-111.89c-5.47-40.16-5.99-87.52-3.99-134.35
		c82.01-51.33,92.89-157.22,92.99-158.29c0.13-1.37-0.61-2.67-1.84-3.27c-1.23-0.6-2.71-0.38-3.71,0.57l-36.77,34.92
		c-23.33,22.16-39.71,64-48.85,92.86c6.26-94.73,20.63-179.43,21.97-187.17c1.57,0.32,3.21,0.54,4.98,0.54
		c9.97,0,22.37-4.93,30.21-12.6c6.63-6.49,9.22-14.13,7.51-21.66c6.59,4.79,13.67,7.9,22.39,10.91c2.99,1.03,5.87,1.55,8.63,1.55
		c3.21,0,6.25-0.7,9.1-2.11c6.33-3.13,11.3-9.67,14.38-18.92c1.64-4.93,3.48-8.19,5.1-11.05c2.75-4.87,5.13-9.08,2.93-16.85
		c-1.16-4.13-4.39-6.43-8.33-7.65c4.36-2.48,7.39-5.32,8.56-8.08c1.28-3.02,0.42-6.05-2.23-7.89c-1.6-1.11,0.74-7.69,2.14-11.62
		c2.68-7.54,6.36-17.87-2.54-21.17c-2.66-0.99-2.77-1.69-3.26-4.67c-0.84-5.15-2.12-12.94-18.34-22.93
		c-7.07-4.35-15.13-4.6-23.95-0.72c-9.35,4.11-18.63,12.56-26.78,21.95c4.07-17.35,1.46-33.85-8.07-43.94
		c-1.44-1.52-14.47-14.79-30.52-12.87c-6.64,0.81-10.62,3.85-14.47,6.79c-3.95,3.02-7.69,5.88-14.85,6.98
		c-3.95,0.61-6.87,0.34-9.45,0.11c-3.88-0.35-7.56-0.68-12.07,2.16c-8.34,5.26-10.29,15.35-11.23,20.21
		c-0.75,3.87-3.02,15.63,3.12,25.06c2.16,3.32,4.8,5.43,7.71,6.95c-0.49,0.16-0.98,0.31-1.48,0.5
		c-22.13,8.4-31.57,27.95-25.24,52.31c2.25,8.64,0.05,11.92-1.54,14.32c-1.02,1.54-2.3,3.45-1.74,5.96
		c0.63,2.8,3.13,5.06,10.28,9.34c1.82,1.09,3.49,2.12,5.05,3.08c7.54,4.65,12.9,7.64,18.38,7.64c4.56,0,9.22-2.13,15.27-7.05
		c-1.28,5.1-2.55,9.94-4.91,14.46c-4.29,8.21-5.07,9.69-3.29,11.89c1.6,1.98,3.96,1.32,5.53,0.89c2.93-0.81,7.85-2.17,14.37,2.44
		c9.43,6.65,12.87,6.23,17.05,4.83c1.31-0.44,2.58-0.86,4.7-0.67c-0.73,4.18-9.76,56.83-16.76,125.28
		c-1.1-6.14-2.54-12.76-4.43-19.76c-5.98-22.03-17.49-40.28-25.79-51.42c6.3-10.13-0.73-24.21-7.86-28.18
		c-1.49-8.01-4.87-17.63-12.16-26.75c-0.33-0.41-33.57-40.88-45.27-36.63c-1.15,0.42-3.82,1.88-3.7,6.34
		c0.33,13.12,16.33,63.57,36.4,73.74c0.18,0.09,0.34,0.17,0.52,0.25c-0.29,8.83,17.82,17.58,26.57,15.74
		c7.92,10.72,18.89,28.15,24.48,48.76c9.36,34.49,7.32,60.23,7.3,60.49c-0.01,0.17,0.05,0.31,0.05,0.47
		c-4.56,58.15-6.55,122.08-0.83,175.63c-2.25-7.68-4.9-16-8.05-24.88c-17.45-49.21-56.45-65.21-58.1-65.87
		c-1.33-0.53-2.85-0.14-3.76,0.97c-0.91,1.11-1,2.68-0.22,3.88c0.14,0.22,14.28,22.47,29.94,76.15
		c14.09,48.26,38.37,64.6,45.5,68.48c0.67,19.58,0.31,39.75-0.78,59.88c-0.82-2.55-1.68-5.02-2.59-7.41
		c-10.96-28.98-26.7-52.75-43.37-77.91c-24.8-37.44-50.45-76.16-59.09-133.8c-0.01-0.08-0.06-0.14-0.08-0.22
		c1.81-0.98,3.61-2.36,5.41-4.3c1.09-1.17,2.18-2.54,3.26-4.13c9.36-13.76,12.1-24.72,9.03-37.51c6.9,2.31,14.51,3.88,22.97,4.69
		c3.87,0.37,7.49-0.41,10.73-2.33c1.41-0.83,2.7-1.89,3.86-3.14c4.44-4.78,6.89-12.23,6.04-19.4c-0.51-4.33-2.13-7.13-3.31-9.17
		c-1.23-2.13-1.64-2.93-1.29-4.38c0.41-1.74,1.58-2.61,3.62-3.99c2.29-1.56,5.15-3.5,6.14-7.65c1.76-7.33-4.03-14.17-6.49-17.09
		c-3.13-3.71-6.85-6.55-10.46-8c-7.22-2.9-12.42-4.29-16.97-4.84c0.34-0.3,0.66-0.61,0.95-0.92c4.03-4.33,4.15-10.54,4.44-25.04
		c0.05-2.69,0.11-5.68,0.2-9.04c0.29-10.76-1.96-18.11-6.87-22.46c-6.46-5.73-15.66-4.36-21.75-3.45c-1.62,0.24-3.02,0.45-4.05,0.49
		c-2.82,0.11-4.59-0.37-6.64-0.91c-3.39-0.9-7.23-1.92-15.5-0.43c-10.23,1.85-12.39,10.12-13.56,16.94
		c-0.58-1.11-1.18-2.16-1.8-3.15c-4.48-7.09-9.8-10.73-15.81-10.83l-3.09-0.06c-16.99-0.32-17.69-0.09-36.97,12.37l-2.61,1.68
		c-11.85,7.64-14.07,17.16-13.83,23.8c0.32,9.26,5.8,19,14.23,26.11c-6.99,0.08-14.23,2.36-19.6,9.1
		c-3.97,4.97-7.94,8.45-11.45,11.51c-7.02,6.13-13.08,11.44-7.91,22.54c1.08,2.33,1.91,4.26,2.61,5.91
		c3.69,8.63,4.94,10.76,18.51,19.19c12.61,7.84,30.79,9.94,44,4.45c-1.93,6.78-1.77,14.43,3.3,21.56
		c9.49,13.37,20.68,15.75,29.66,17.66c2.77,0.59,5.38,1.14,7.63,1.96c0.86,0.31,1.71,0.64,2.56,0.96c4.45,1.7,9.19,3.48,14.02,3.23
		c8.33,54.63,31.33,92.37,54.7,127.86c-15.33-11.47-31.49-18.85-39.21-22.04c-0.17-0.39-0.42-0.76-0.75-1.07
		c-1.3-1.25-32.27-30.61-61.41-32.9c-27.75-2.18-67.97-10.94-68.37-11.03c-1.29-0.28-2.63,0.24-3.4,1.32
		c-0.77,1.08-0.81,2.51-0.11,3.64c1.07,1.72,26.57,42.19,65.75,56.85c8.49,3.18,16.41,4.43,23.61,4.43
		c20.99,0,35.89-10.62,41.53-15.38c10.48,4.33,40.98,18.32,58.42,40.6C497.71,723,509,742.1,517.32,764.12
		c1.81,4.78,3.44,9.93,4.92,15.37c-14.54-5-29.98-2.85-40.04,6.47c-6.26,5.81-11.18,15.32-11.2,21.66
		c-0.01,3.22,1.22,5.05,2.25,6.02c4.37,4.1,9.94,0.21,17.65-5.16c8.09-5.64,19.71-13.73,34.01-15.76c-0.11,1.34-0.22,2.67-0.34,4
		c-15.89,27.62-48.39,67.17-48.76,67.61c-1.24,1.51-1.02,3.73,0.48,4.97c1.51,1.24,3.73,1.02,4.97-0.48
		c1.3-1.58,24.97-30.38,41.83-56.25c-0.08,0.74-0.15,1.49-0.23,2.23c-12.69,46.63-29.32,97.66-56.19,154.31
		c-0.7,1.48-0.07,3.24,1.4,3.94c0.41,0.2,0.84,0.29,1.26,0.29c1.11,0,2.17-0.63,2.68-1.69c20.5-43.22,35.06-83.14,46.47-120.35
		c-10.8,79.56-27.38,143.16-27.67,144.27c-0.5,1.88,0.63,3.82,2.51,4.32c0.3,0.08,0.6,0.12,0.9,0.12c1.56,0,2.99-1.05,3.41-2.63
		c0.34-1.28,22.01-84.45,32.03-180.07c10.48,75.09,3.68,170.53,3.59,171.74c-0.14,1.94,1.32,3.64,3.26,3.78
		c0.09,0.01,0.18,0.01,0.26,0.01c1.83,0,3.38-1.42,3.52-3.27c0.33-4.48,5.78-80.91-0.94-150.87c4.77,16.79,11.42,34.15,20.43,45.59
		l21.85,27.75c0.7,0.89,1.73,1.35,2.78,1.35c0.77,0,1.53-0.25,2.18-0.76c1.53-1.21,1.8-3.43,0.59-4.96l-21.85-27.75
		c-14.99-19.04-23.36-57.32-26.95-77.87c14.93,18.19,30.98,30.32,34.7,32.27c2.45,1.29,5.97,1.94,9.35,1.94
		c3.29,0,6.45-0.61,8.41-1.84c1.76-1.11,2.73-2.8,2.65-4.62c-0.23-6.19-3.9-10.51-5.27-12.14c-21.19-25.09-43.05-30.79-51.63-32.1
		c2.93-11.67,5.7-23.08,8.4-34.22c6.26-25.86,12.3-50.68,19.41-74.53c14.83,1.34,79.68,5.59,69.07-24.07
		c-9.98-27.91-49.58-5.15-62.43,3.15c0.91-2.68,1.8-5.37,2.75-8.03c5.78-16.18,12.49-32.14,19.57-47.41
		c14.63,1.51,75.96,6.23,68.32-21.79c-7.09-26.02-45.71-5.02-59.48,3.44c9.53-19.1,19.35-36.74,28.28-51.84
		c13.52,2.87,78.04,14.84,76.64-18.44c-1.31-31.13-51.63-5.17-67.96,4.09c10.25-16.63,18.49-28.78,22.41-34.44
		C736.15,449.13,726.07,408.64,703.27,413.27z M434.62,276c7.64,8.4,28.91,32.97,41.32,59.28c-1.16,0.89-2.28,1.85-3.33,2.83
		c-11.33-13.34-28.85-36.47-37.88-60.91C434.68,276.78,434.64,276.38,434.62,276z M470.98,310.04c5.92,7.41,8.89,15.28,10.34,22.05
		c-1.4,0.56-2.81,1.37-4.18,2.32c-11.16-23.52-29.26-45.61-38.51-56.12C446.18,283.42,459.5,295.68,470.98,310.04z M436.1,284.58
		c9.6,22.06,25.11,42.37,35.45,54.54c-1.46,1.44-2.74,2.84-3.74,4c-0.24-0.12-0.45-0.21-0.7-0.34
		C453.28,335.78,440.41,302.89,436.1,284.58z M468.68,438.77c1.58,0.64,4.75,2.31,8.15,6.33c1.89,2.24,6.31,7.47,5.26,11.89
		c-0.44,1.84-1.64,2.72-3.72,4.14c-2.26,1.54-5.08,3.45-6.05,7.52c-0.91,3.81,0.6,6.42,1.93,8.71c1.07,1.86,2.19,3.78,2.56,6.9
		c0.79,6.71-2.23,13.91-7.03,16.75c-2.15,1.27-4.55,1.79-7.16,1.54c-16.88-1.62-30.19-6.29-40.69-14.27
		c-6.05-4.6-11.42-10.05-16-16.19c1.15-0.72,2.21-1.51,3.13-2.39c3.18,1.63,6.82,3.27,10.59,4.93c2.71,1.19,5.27,2.31,5.92,2.79
		c0.67,0.49,1.58,0.39,2.13-0.2c0.04-0.04,0.08-0.09,0.12-0.14c0.53-0.72,0.38-1.72-0.34-2.25c-0.9-0.66-2.86-1.53-6.54-3.15
		c-2.64-1.16-6.26-2.75-9.67-4.46c2.86-4.02,3.66-9.11,2.11-14.78c4.88-0.43,12.07-0.9,16.12-0.39c0.88,0.11,1.68-0.52,1.8-1.4
		c0.11-0.88-0.52-1.69-1.4-1.8c-4.61-0.57-12.62-0.01-17.61,0.45c-0.54-1.3-1.19-2.62-1.98-3.96c6.19-3.77,16.18-9.13,24.3-9.97
		c1.7-0.18,3.27-0.36,4.74-0.53C449.43,433.66,454.48,433.07,468.68,438.77z M396.69,386.41c1.26-7.86,2.49-12.72,9.07-13.91
		c6.97-1.26,9.86-0.49,12.93,0.32c2.19,0.58,4.67,1.24,8.38,1.1c1.36-0.05,2.91-0.28,4.7-0.55c5.3-0.79,12.56-1.87,16.95,2.03
		c3.47,3.08,5.11,9.09,4.88,17.87c-0.09,3.37-0.15,6.38-0.21,9.08c-0.42,21.02-0.45,21.3-11.79,26.26c-0.95,0.1-1.91,0.21-2.92,0.33
		c-1.45,0.17-2.99,0.35-4.66,0.52c-9.42,0.98-20.45,6.91-27.06,10.97c-0.17-0.21-0.36-0.43-0.54-0.64
		c6.93-6.16,16.74-14.12,23.28-16.22c0.27-0.09,0.5-0.24,0.69-0.44c0.38-0.41,0.54-1.02,0.35-1.59c-0.27-0.85-1.18-1.31-2.03-1.04
		c-7.1,2.28-17.27,10.5-24.4,16.84c-0.24-0.25-0.47-0.49-0.71-0.73c4.42-12.42,6.09-27.61,6.18-28.45c0.09-0.88-0.55-1.68-1.43-1.77
		c-0.88-0.1-1.68,0.55-1.77,1.43c-0.02,0.19-1.6,14.58-5.6,26.51c-0.28-0.21-0.56-0.42-0.84-0.61c1.31-10.67-0.52-27.1-4.96-40.42
		C395.89,391.21,396.29,388.88,396.69,386.41z M322.94,407.23c-0.25-7.33,3.59-13.77,11.13-18.62l2.61-1.69
		c18.14-11.72,18.14-11.72,33.65-11.43l3.11,0.06c3.88,0.06,7.55,2.78,10.9,8.08c7.77,12.29,11.12,34.67,10.12,47.51
		c-0.64-0.16-1.29-0.27-1.92-0.34c-0.92-6.55-2.22-13.33-4.34-18.4c-5-11.98-7.49-14.16-8.33-14.54c-0.81-0.37-1.86-0.06-2.22,0.75
		c-0.37,0.81-0.1,1.71,0.71,2.08c0.09,0.07,2.2,1.75,6.88,12.95c1.94,4.65,3.17,10.97,4.06,17.16c-5.71,0.66-10.93,4.61-14.7,10.13
		c-11.01-5.39-18.3-14.64-18.38-14.75c-0.54-0.7-1.56-0.83-2.26-0.29c-0.71,0.54-0.83,1.55-0.29,2.26
		c0.36,0.47,7.74,9.85,19.24,15.54c-0.66,1.19-1.26,2.43-1.78,3.71c-7.01-2.83-18.3-7.71-29.55-13.91
		C330.77,427.55,323.28,416.99,322.94,407.23z M316.54,496.78c-12.45-7.75-12.95-8.91-16.19-16.49c-0.73-1.7-1.58-3.69-2.69-6.08
		c-3.15-6.78-1.11-8.98,6.44-15.59c3.51-3.07,7.88-6.89,12.18-12.28c10.8-13.48,30.24-3.36,31.06-2.93
		c0.34,0.18,0.71,0.28,1.07,0.32c8.22,4.05,15.77,7.27,20.92,9.34c-0.13,0.59-0.25,1.19-0.35,1.78c-6.49-0.63-14.43-1.07-20.3-0.29
		c-0.88,0.12-1.5,0.93-1.39,1.81c0.12,0.88,0.93,1.5,1.81,1.39c5.52-0.73,13.18-0.3,19.5,0.31c-0.05,0.7-0.08,1.4-0.08,2.1
		c0,0.76,0.05,1.47,0.12,2.17c-10.02,7.84-19.95,20.48-20.52,21.22c-0.55,0.7-0.42,1.71,0.28,2.26c0.7,0.55,1.71,0.41,2.26-0.28
		c0.13-0.17,9.44-12.02,18.72-19.71c1.1,3.29,3.15,5.59,5.67,7.17c-1.32,3.74-3.73,9.49-7.98,16.71c-1.79,1.85-3.77,4.35-5.55,7.3
		C350.81,506.2,329.79,505.01,316.54,496.78z M402.68,542.86c-0.88-0.33-1.76-0.67-2.64-0.99c-2.64-0.96-5.45-1.56-8.43-2.19
		c-8.39-1.78-17.91-3.81-26.06-15.29c-6.05-8.52-2.94-17.62,0.67-23.71c0.42-0.4,0.87-0.77,1.26-1.19c1.04-1.12,1.99-2.34,2.81-3.67
		c5.52-8.82,8.58-15.87,10.23-20.5c1.22,0.32,2.45,0.56,3.65,0.72c-1.21,9.29-1.04,17.75-1.03,18.27c0.02,0.89,0.76,1.59,1.65,1.57
		c0.89-0.02,1.59-0.76,1.57-1.65c0-0.12-0.17-8.68,1.03-17.91c1.79,0.08,3.43,0.03,4.75-0.05c2.59,5.53,6.01,11.98,9.97,17.26
		c0.53,0.71,1.54,0.86,2.25,0.32c0.08-0.06,0.15-0.12,0.22-0.19c0.52-0.56,0.58-1.43,0.11-2.06c-3.54-4.73-6.68-10.55-9.15-15.72
		c1.76-0.3,3.37-0.74,4.91-1.25c5.06,7,11.07,13.18,17.89,18.37c4.2,3.19,8.8,5.89,13.82,8.11c4.29,12.98,2.37,23.05-7,36.83
		C417.87,548.64,411.5,546.22,402.68,542.86z M364.11,668.07c-27.8-10.4-48.91-35.47-57.82-47.5c13.38,2.7,40.56,7.85,61.13,9.47
		c19.73,1.55,41.32,17.51,51.47,25.93c-10.67-0.78-34.28-2.95-47.32-7.57c-17.21-6.1-17.21-6.1-17.21-6.1s16.61,16.82,62.59,20.36
		C407.11,669.13,388.45,677.17,364.11,668.07z M581.82,407.11l29.86-28.36c-4.37,25.06-21.33,95.14-78.41,137.2l38.65-66.23
		c0,0,0,0-14.78,18.62c-10.22,12.87-20.93,32.19-26.57,42.89C538.15,484.54,555.7,431.9,581.82,407.11z M649.27,239.62
		c1.45,5.13,0.26,7.23-2.33,11.82c-1.68,2.98-3.77,6.68-5.61,12.22c-2.5,7.54-6.32,12.76-11.04,15.09c-3.65,1.8-7.9,1.88-12.66,0.24
		c-13.98-4.83-22.92-9.56-32.93-21.97c-5.16-7.53-11.48-14.37-16.54-19.35c0.78-0.89,1.49-1.87,2.06-2.99
		c4.95-1.03,14.67-1.71,32.02,1.63c4.66,0.9,9.28,1.3,13.74,1.3c5.17,0,10.12-0.55,14.68-1.48
		C637.81,235.17,648,235.1,649.27,239.62z M612.59,158.24c5.86-2.03,10.95-1.65,15.57,1.2c13.65,8.41,14.6,14.17,15.29,18.38
		c0.57,3.5,1.22,7.47,7.47,9.79c2.38,0.88,1.46,4.83-1.37,12.78c-2.51,7.06-5.36,15.06,0.22,19.19c-0.23,0.53-1.04,1.7-3.12,3.22
		c-3.73,2.73-9.42,5.2-16.26,6.72c-2.59,0.34-4.53,0.74-5.19,0.89l0.01,0.03c-6.63,0.9-14.04,0.89-21.7-0.59
		c-15.03-2.9-24.94-2.95-31.34-2.14c0.19-2.16,0.04-4.33-0.49-6.39c3.81-2.06,8.1-2.92,11.37-3.27c0.7,1.75,2.24,3.13,4.23,3.51
		c3.11,0.6,6.11-1.44,6.71-4.54c0.6-3.11-1.44-6.11-4.54-6.71c-2.88-0.55-5.64,1.16-6.51,3.89c-3.54,0.35-8.25,1.25-12.6,3.48
		c-0.24-0.44-0.51-0.89-0.86-1.36c-0.4-0.54-0.85-1.05-1.34-1.52c5.3-6.12,13.16-14.06,20.61-17.37c0.97,1.65,2.6,2.91,4.63,3.3
		c3.75,0.72,7.37-1.73,8.09-5.48c0.72-3.75-1.73-7.37-5.48-8.09c-3.75-0.72-7.37,1.73-8.09,5.48c-0.07,0.36-0.09,0.72-0.1,1.08
		c-8.51,3.6-17.12,12.26-22.76,18.79c-0.55-0.31-1.12-0.59-1.71-0.85C570.85,198.44,592.18,165.32,612.59,158.24z M488.89,175.96
		c-4.69-7.2-2.8-17-2.17-20.22c0.76-3.94,2.34-12.15,8.27-15.88c2.62-1.66,4.52-1.48,7.97-1.17c2.81,0.25,6.31,0.57,11.04-0.16
		c8.83-1.35,13.62-5.02,17.85-8.26c3.58-2.73,6.4-4.89,11.26-5.48c12.99-1.58,24.45,10.34,24.93,10.85
		c11.98,12.67,10.75,37.9-2.81,60.24c-3.65,5.53-6.57,10.47-8.5,14.02c-0.77-0.1-1.55-0.16-2.34-0.2
		c0.37-7.15,1.15-15.97,2.67-21.69c2.28-0.39,4.19-2.14,4.65-4.55c0.6-3.11-1.44-6.11-4.54-6.71c-3.11-0.6-6.11,1.44-6.71,4.54
		c-0.48,2.48,0.74,4.88,2.83,6.06c-1.69,6.5-2.43,15.66-2.75,22.42c-0.93,0.07-1.86,0.18-2.79,0.33
		c-1.26-9.04-3.91-24.46-8.33-33.95c0.98-0.95,1.7-2.2,1.98-3.65c0.72-3.75-1.73-7.37-5.48-8.09c-3.75-0.72-7.37,1.73-8.09,5.48
		c-0.72,3.75,1.73,7.37,5.48,8.09c0.95,0.18,1.89,0.16,2.78-0.03c4.13,8.98,6.7,24.22,7.91,32.97c-0.38,0.11-0.75,0.23-1.13,0.36
		c-0.08-0.11-0.16-0.23-0.24-0.34l0.01-0.01c-0.1-0.15-4.22-6.61-11.26-13.08c-3.54-3.41-6.91-6.04-9.72-7.6
		c-6.68-3.71-12.7-5.19-18.01-6.49C496.97,182.13,492.14,180.95,488.89,175.96z M479.86,266.41c-1.58-0.98-3.28-2.02-5.13-3.13
		c-4.98-2.98-6.58-4.38-7.08-4.99c0.16-0.29,0.43-0.69,0.64-1c2.03-3.05,5.42-8.14,2.44-19.63c-5.48-21.09,2.25-37.31,21.2-44.49
		c13.59-5.16,25.51,1.23,33.68,8.33c3.5,3.21,7.41,7.49,11.15,12.57c-0.45,0.28-0.91,0.55-1.35,0.85c-0.92,0.64-1.71,1.32-2.46,1.99
		c-5.21-2.21-12.94-5.18-19.94-6.64c-0.35-2.34-2.11-4.31-4.56-4.79c-3.11-0.6-6.11,1.44-6.71,4.54c-0.6,3.11,1.44,6.11,4.54,6.71
		c2.44,0.47,4.8-0.7,6-2.72c6.19,1.3,13.16,3.91,18.18,6c-0.49,0.94-0.79,1.96-0.94,3.01c-7.14,0.81-17.23,2.85-26.04,7.84
		c-0.88-0.74-1.93-1.3-3.13-1.53c-3.75-0.72-7.37,1.73-8.09,5.48c-0.72,3.75,1.73,7.37,5.48,8.09c3.75,0.72,7.37-1.73,8.09-5.48
		c0.22-1.17,0.11-2.31-0.22-3.37c8.05-4.48,17.37-6.38,24.08-7.17c0.67,2.84,2.07,6.14,4.78,8.92
		c-12.42,7.49-17.82,16.21-20.97,24.85l-0.05-0.05C496.98,276.95,494.37,275.35,479.86,266.41z M536.7,300.87
		c-2.25,0.75-3.74,1.26-11.15-3.97c-6.34-4.47-11.97-4.79-15.87-4.28c0.4-0.77,0.84-1.61,1.31-2.5c2.84-5.44,4.28-11.15,5.66-16.68
		c3.08-12.28,6.06-23.94,23.99-33.55c1.7,0.61,3.42,0.86,5.28,0.96c-2.17,9.03-5.54,19.75-10.24,25.88c-0.49-0.26-1-0.47-1.57-0.58
		c-3.11-0.6-6.11,1.44-6.71,4.54c-0.6,3.11,1.44,6.11,4.54,6.71c3.11,0.6,6.11-1.44,6.71-4.54c0.22-1.16,0.08-2.31-0.35-3.32
		c5.48-6.88,9.21-18.78,11.51-28.47c0.9,4.3,1.69,9.75,1.46,14.94c-1.71,0.96-3.01,2.61-3.41,4.69c-0.72,3.75,1.73,7.37,5.48,8.09
		c3.75,0.72,7.37-1.73,8.09-5.48c0.72-3.75-1.73-7.37-5.48-8.09c-0.28-0.05-0.55-0.05-0.82-0.07c0.1-5-0.6-10.05-1.43-14.19
		c1.65,0.03,3.42,0.1,5.41,0.3c1.31,0.13,2.3,0.05,3.15-0.1c8.01,7.73,20.44,21.22,24.2,33.61c2.14,7.08-1.8,12.88-5.49,16.49
		c-8.16,8-22.5,12.68-30.66,10.02C542.79,298.83,539.27,300.01,536.7,300.87z M488.13,638.82c-10.18-34.89-19.62-56.56-25.29-67.93
		c12.31,7.73,33.6,25.01,44.9,56.86c9.9,27.93,14.91,50.49,17.36,64.38c-10.36-26.96-25.33-51.49-25.33-51.49s0,0,5.64,18.12
		c3.97,12.76,13.47,30.77,18.75,40.34C514.67,691.64,498.53,674.48,488.13,638.82z M486.86,802.67c-3.17,2.21-7.03,4.9-8.81,5.45
		c-0.37-2.63,2.6-11.08,8.96-16.98c5.23-4.85,12.34-7.27,19.96-7.27c4.41,0,8.99,0.81,13.48,2.42
		C506.21,789.19,494.92,797.06,486.86,802.67z M582.86,822.23c0.91,1.08,2.91,3.43,3.47,6.55c-2.17,0.64-7.23,0.71-9.92-0.7
		c-2.08-1.1-19.87-13.89-35.66-34.42C550.22,796.18,566.72,803.12,582.86,822.23z"/>
</g>
</svg>
